<svg xmlns="http://www.w3.org/2000/svg" version="1.1" xmlns:xlink="http://www.w3.org/1999/xlink" width="512" height="512" x="0" y="0" viewBox="0 0 512 512" style="enable-background:new 0 0 512 512" xml:space="preserve" class=""><g><path d="M158.504 29.998c-24.813 0-44.998 21.185-44.998 45.998s20.185 44.998 44.998 44.998 44.998-20.185 44.998-44.998c-.001-24.813-20.185-45.998-44.998-45.998zM308.495 150.992H98.506c-33.088 0-59.996 26.908-59.996 59.997v89.995c0 16.537 13.461 29.998 29.998 29.998 4.665 0 22.74-3.962 27.45-4.907L69.666 473.728c-4.541 15.907 4.673 32.532 20.58 37.088 16.457 4.677 32.594-4.973 37.102-20.595l31.163-131.52 31.133 131.505c4.38 15.233 21.378 25.181 37.117 20.595 14.765-4.211 25.524-19.368 20.58-37.059L218.5 311.794V210.989h89.995c16.537 0 29.998-13.461 29.998-29.998s-13.461-29.999-29.998-29.999zM434.7 60.997l34.393-35.393a14.982 14.982 0 0 0 3.251-16.346A14.981 14.981 0 0 0 458.488 0H308.496c-8.284 0-14.999 6.716-14.999 14.999v105.994h164.991a14.981 14.981 0 0 0 13.856-9.258 14.982 14.982 0 0 0-3.252-16.347L434.7 60.997z" fill="#0B64C5" opacity="1" data-original="#000000" class=""></path><path d="M308.496 240.987h-14.999v255.987c0 8.291 6.709 14.999 14.999 14.999 8.291 0 14.999-6.709 14.999-14.999V238.857c-4.823 1.252-9.79 2.13-14.999 2.13z" fill="#0B64C5" opacity="1" data-original="#000000" class=""></path></g></svg>